<?xml version="1.0" encoding="UTF-8"?>
<svg id="logosandtypes_com" data-name="logosandtypes com" xmlns="http://www.w3.org/2000/svg" viewBox="0 0 150 150">
  <defs>
    <style>
      .cls-1 {
        fill: #337ace;
      }

      .cls-2 {
        fill: none;
      }
    </style>
  </defs>
  <path class="cls-2" d="M0,0H150V150H0V0Z"/>
  <path class="cls-1" d="M76.63,138.37c13.12,0,25.01-3.74,33.36-12.1,7.39-7.39,10.54-15.94,11.87-25.13-30.07,11.21-57.05,23.79-80.39,37.23h35.17Z"/>
  <path d="M74.96,12.03H31.01V106.83c7.96-3.13,16.19-6.18,24.68-9.14V34.01h18.87c8.14,0,14.28,2.85,18.21,7.82,4.76,6.02,5.22,11.1,5.22,42.5,8.06-2.3,24.76-6.66,24.76-6.66,0-30.45,0-40.2-12.77-53.57-8.15-8.53-20.06-12.06-35.02-12.06Z"/>
</svg>