<svg xmlns="http://www.w3.org/2000/svg" viewBox="0 0 268.2 336.6"><defs><style>.cls-1{fill:#fff;}.cls-2{fill:#500000;}</style></defs><title>Thumb Full</title><g id="Layer_2" data-name="Layer 2"><g id="Layer_2-2" data-name="Layer 2"><path id="BG_Thumb_Stroke_" data-name="BG Thumb (Stroke!)" class="cls-1" d="M267.72,201.35c-1.6-23.78-12.69-40.57-35.8-48.49-3.78-1.3-7.57-2.59-11.24-4.16-2.81-1.21-6.07-2.56-6.18-6.18-.1-3.41,3.05-4.6,5.58-5.85,7.57-3.76,15.28-7.25,22.79-11.11a29.39,29.39,0,0,0,13.92-14.17,101.4,101.4,0,0,0,5.11-12.33c2.23-7.4,4.83-14.86,5.73-22.47,2.89-24.53-5.36-45.92-20.13-65.09-7.45-9.66-23.94-14.18-35.39-9.85-10.8,4.08-15.53,13-17.7,23.53-1.45,7-2.35,14.11-5.15,20.85a174.14,174.14,0,0,0-5.62,17.23C181.35,70.91,172.7,75.7,166,74.63c-5.37-.86-9.89.76-14.52,2.58a9.67,9.67,0,0,1-7.23,0c-7.25-2.57-14.71-4.7-22.48-3.4-13.67,2.29-26.52,6.58-37.13,16.14-4.4,4-9.33,7.38-14,11a11.79,11.79,0,0,1-3.18,2c-16.6,5.63-33.25,10.89-51.2,9-10.78-1.15-15.14,6.51-15.95,16-.52,6-.1,12.12-.1,18.18l.31,0c1.07,16.2,2.17,32.41,3.2,48.62.73,11.51,2.61,22.82,8.16,33,2.72,5,6.71,9.38,10.49,13.73,1.1,1.26,3.42,1.91,5.23,2,5,.28,7.38,2.17,8.78,6.87,5.55,18.54,14.08,34.73,33.43,42.54A17.82,17.82,0,0,1,79.83,303c3.52,8.38,10.07,14,18.37,17.59,10.63,4.52,21.77,5.84,33.24,5.09a16.26,16.26,0,0,1,6.29.72c9,3.16,18,6.57,27,9.8a6.23,6.23,0,0,0,3.64.24c9.7-2.91,19-6.62,26.51-13.79,4.14-4,7.28-8.52,8.29-14.27.7-4,2.78-6.4,6.87-7.42a23.53,23.53,0,0,0,7.73-3.46c6-4.16,8.35-10.36,8.9-17.39.39-5,1.35-6.28,6-7.91,4.84-1.7,8.88-4.74,11.09-9.24,2.74-5.58,5.72-11.44,6.58-17.48,1.3-9.09,3.4-16.88,11.82-22.12,4.46-2.78,6.47-7.48,5.82-13.07C267.62,207.32,267.92,204.32,267.72,201.35Z"/><g id="Main_Body" data-name="Main Body"><path class="cls-2" d="M173.75,230.92l5.9-7.35c-17.38-13.19-36.78-22-55.68-31.77C140.14,205.22,155.08,220.17,173.75,230.92Z"/><path class="cls-2" d="M267.72,201.35c-1.6-23.78-12.69-40.57-35.8-48.49-3.78-1.3-7.57-2.59-11.24-4.16-2.81-1.21-6.07-2.56-6.18-6.18-.1-3.41,3.05-4.6,5.58-5.85,7.57-3.76,15.28-7.25,22.79-11.11a29.39,29.39,0,0,0,13.92-14.17,101.4,101.4,0,0,0,5.11-12.33c2.23-7.4,4.83-14.86,5.73-22.47,2.89-24.53-5.36-45.92-20.13-65.09-7.45-9.66-23.94-14.18-35.39-9.85-10.8,4.08-15.53,13-17.7,23.53-1.45,7-2.35,14.11-5.15,20.85a174.14,174.14,0,0,0-5.62,17.23C181.35,70.91,172.7,75.7,166,74.63c-5.37-.86-9.89.76-14.52,2.58a9.67,9.67,0,0,1-7.23,0c-7.25-2.57-14.72-4.7-22.48-3.4-13.67,2.29-26.52,6.58-37.13,16.14-4.41,4-9.33,7.38-14,11a11.79,11.79,0,0,1-3.18,2c-16.6,5.63-33.25,10.89-51.2,9-10.78-1.15-15.14,6.51-15.95,16-.52,6-.1,12.12-.1,18.18l.31,0c1.07,16.2,2.17,32.41,3.2,48.62.73,11.51,2.61,22.82,8.16,33,2.72,5,6.71,9.38,10.49,13.73,1.1,1.26,3.42,1.91,5.23,2,5,.28,7.38,2.17,8.78,6.87,5.55,18.54,14.08,34.73,33.43,42.54A17.82,17.82,0,0,1,79.83,303c3.52,8.38,10.07,14,18.37,17.59,10.63,4.52,21.77,5.84,33.24,5.09a16.26,16.26,0,0,1,6.29.72c9,3.16,18,6.57,27,9.8a6.23,6.23,0,0,0,3.64.24c9.7-2.91,19-6.62,26.51-13.79,4.14-4,7.28-8.52,8.29-14.27.7-4,2.78-6.4,6.87-7.42a23.53,23.53,0,0,0,7.73-3.46c6-4.16,8.35-10.36,8.9-17.39.39-5,1.35-6.28,6-7.91,4.84-1.7,8.88-4.74,11.09-9.24,2.74-5.58,5.72-11.44,6.58-17.48,1.3-9.09,3.4-16.88,11.82-22.12,4.46-2.78,6.47-7.48,5.82-13.07C267.62,207.32,267.92,204.32,267.72,201.35ZM163.6,323.89c-5,.37-10,.09-15.08,0a4.8,4.8,0,0,1-2.59-.64c-9.09-6.4-19.76-7.3-30.25-8.89a113.62,113.62,0,0,1-11.78-2.18C95.39,310,88.84,305,85.2,296.87c-1.92-4.28-4.88-7.42-9-8.93-11-4-16.8-12.13-21.8-22.5-7.06-14.68-9.65-29.85-10.29-45.71,0-.63.08-1.28.15-2.32,1.3.72,2.29,1.2,3.21,1.79,13.37,8.55,26.72,17.16,40.14,25.65,2,1.26,2.55,2.53,2.47,4.94-.3,9.11-.2,18.23-.26,27.35,0,1.14.28,2.4-.1,3.4-1.45,3.76.38,4.83,3.71,5.65,7,1.71,13.84,3.84,21.54,6,3.33-5.48,6.9-11.36,10.57-17.42l15.32,11.09-6.76,10.7c15.56,4.63,26.29,15.86,39,24l.07,1.08C170,322.44,166.83,323.66,163.6,323.89ZM207.28,287a78.29,78.29,0,0,1-10.07,8.71c-5,3.77-9.58,7.79-12.33,14.06-1.14-.72-2.18-1.31-3.15-2q-54.6-39.21-109.18-78.44c-8-5.74-16-11.44-23.89-17.31-1-.72-2-2.48-1.79-3.51,2.35-11,4.94-22,7.49-33a7.4,7.4,0,0,1,.8-1.38C73,186.07,90.78,198,108.73,210c-1.76,2.86-3.44,5.42-4.93,8.08-1.28,2.29-2.29,4.72-3.5,7-1.7,3.27-1,5.26,2.34,7.32,11.6,7.07,22.94,14.56,34.29,21.82l9.24-13.76,18.33,11.56L153.81,268.7,172.68,283c6.72-5.49,12.28-11.71,16.17-19.69l23.06,16C210.38,281.91,209.28,284.87,207.28,287Zm27.41-37.73-34.42-14.71-6.45,9.32,31.82,19.34-13.52,12.32.7,1.22c-1.13-.7-2.27-1.38-3.4-2.09-30.62-19.28-59.15-41.45-88.08-63.1-21.88-16.37-44.17-32.18-66.27-48.24-.82-.59-1.62-1.21-2.72-2,4.73-7.41,9.38-14.68,14.48-22.65,9.68,5.38,19.36,10.27,28.54,16,16.5,10.25,32.29,21.72,49.13,31.35,29.64,16.94,59.37,33.86,91.46,46a5.73,5.73,0,0,1,1,.55C236.25,238,235.54,243.12,234.69,249.28Zm12-39.43a24.46,24.46,0,0,0-.18,4.11c0,6.93-3.85,11.15-10.83,11.92a27.08,27.08,0,0,1-15.3-2.89c-10.61-5.32-21-11-32-16.78l5.6-8.71c4.16,2.15,8.08,4.25,12.07,6.2,1.83.9,3.81,1.49,5.72,2.24,2.79,1.09,4.3-.18,5.18-2.75a61.74,61.74,0,0,0,2.24-6.46,3.61,3.61,0,0,0-1.06-3.14c-5.78-3.64-11.64-7.18-17.66-10.42-1-.56-3.09.18-4.4.84a68.62,68.62,0,0,0-7.61,4.63C180.69,194,172.42,194,163.89,191a39.7,39.7,0,0,1-7.86-3.37c-19.85-12.2-39.78-24.3-59.37-36.92a73.59,73.59,0,0,1-20.15-19.92,6.46,6.46,0,0,1-.88-6.67C79,115.4,82.86,112.63,92,115c8.67,2.21,17.51,4.85,25.34,9.06,17.4,9.35,34.22,19.79,51.27,29.8a8,8,0,0,1,1,.92c-1.86,2.64-3.71,5.3-5.63,8.05-6.65-4-12.94-7.93-19.4-11.55a125.24,125.24,0,0,0-11.74-5.48c-1.9-.82-3.45-.33-4.53,1.71-1.17,2.22-2.65,4.27-4.48,7.16,3.32,2.67,6.43,5.68,10,7.93,7.45,4.68,15.19,8.89,22.73,13.42,2.28,1.37,4.12,1.37,6.24-.25s4.66-2.91,6.88-4.51c7.91-5.7,16.41-5.69,25.13-2.5a110.43,110.43,0,0,1,10.59,4.79c7.38,3.63,14.81,7.17,22,11.12a84.42,84.42,0,0,1,13.11,8.65A16.79,16.79,0,0,1,246.73,209.85Zm6.11-17c-16.57-9.61-33.59-17.42-47.39-30.32-7.41-6.93-13.32-15-18.74-24.69-3.86,2.77-7.69,5.16-11.09,8.07-2.54,2.17-4.33,2.48-7.35.59-18.2-11.43-36.62-22.5-54.85-33.89-4.78-3-9.12-6.68-14.35-10.56,10-4.46,19.06-7.7,28.79-8.7,5.33-.54,10.76-.18,16.09-.79,8.14-.91,16.35-1.79,24.28-3.73,3.7-.91,7.39-3.71,10.08-6.6,11.87-12.72,18.57-28,21.61-45.09C201.73,27,206.17,18,214.82,11.75a6.55,6.55,0,0,1,4.92-1.16c5.75,1.75,11.74,3.28,16.94,6.15,11.52,6.36,16.19,17.51,18.69,29.77.66,3.24.76,6.61,1.59,9.8,1.11,4.2-.27,6.83-3.6,9.57-8.91,7.33-15.39,16.84-22,26.18-8.53,12-16.59,24.44-28.09,34a3.41,3.41,0,0,0-.76,2.83c3.32,14.08,10.43,25.06,24.29,31.14a68.79,68.79,0,0,1,21.94,15C253.61,180.12,253.93,185.89,252.84,192.84Z"/></g></g></g></svg>